<?xml version="1.0" standalone="no"?>
<!DOCTYPE svg PUBLIC "-//W3C//DTD SVG 20010904//EN"
 "http://www.w3.org/TR/2001/REC-SVG-20010904/DTD/svg10.dtd">
<svg version="1.0" xmlns="http://www.w3.org/2000/svg"
 width="1024.000000pt" height="1024.000000pt" viewBox="0 0 1024.000000 1024.000000"
 preserveAspectRatio="xMidYMid meet">

<g transform="translate(0.000000,1024.000000) scale(0.100000,-0.100000)"
fill="#000000" stroke="none">
<path d="M4715 7204 c-526 -25 -851 -58 -1230 -125 -1196 -212 -2089 -660
-2481 -1245 -85 -127 -135 -235 -171 -372 -38 -141 -44 -382 -13 -531 142
-694 922 -1267 2175 -1599 390 -104 838 -180 1275 -217 1138 -96 2259 20 3163
326 933 316 1582 840 1731 1397 83 309 48 601 -106 892 -252 476 -773 840
-1598 1115 -577 193 -1164 301 -1880 345 -171 10 -742 19 -865 14z m945 -453
c533 -50 981 -134 1403 -266 148 -45 316 -109 388 -145 l38 -20 98 26 c119 32
321 43 441 25 437 -68 806 -388 926 -803 111 -387 12 -784 -267 -1070 -206
-211 -460 -328 -767 -353 -79 -7 -96 -12 -235 -81 -514 -251 -1128 -412 -1905
-498 -651 -72 -1412 -51 -2095 59 -729 118 -1441 363 -1855 640 -278 186 -475
396 -559 599 -51 123 -64 195 -58 331 10 234 99 417 301 621 261 261 662 477
1211 653 461 147 943 239 1495 286 263 22 297 22 780 20 348 -3 480 -7 660
-24z"/>
<path d="M7830 6222 c0 -7 15 -9 41 -6 31 4 50 -1 84 -20 40 -24 43 -28 40
-66 -2 -37 1 -43 39 -72 l41 -33 -32 38 c-32 37 -42 70 -24 81 5 4 7 -3 4 -13
-3 -12 8 -33 31 -59 30 -33 34 -41 20 -46 -9 -4 -22 -2 -29 4 -10 8 -13 5 -11
-13 1 -19 6 -22 24 -19 21 4 23 2 19 -29 -2 -22 3 -44 15 -64 18 -27 18 -28 1
-10 -10 11 -36 36 -58 54 -22 19 -39 38 -38 41 1 4 -3 7 -10 8 -7 0 -22 4 -33
7 -18 6 -28 -2 -57 -47 -46 -68 -84 -108 -103 -108 -19 0 -52 55 -60 100 -11
57 -20 66 -101 95 -43 15 -93 36 -111 47 -20 12 -37 17 -42 12 -6 -6 15 -19
50 -32 33 -13 60 -28 60 -33 0 -6 4 -8 9 -5 9 6 81 -20 81 -30 0 -3 -4 -2 -10
1 -5 3 -26 2 -46 -4 -28 -8 -35 -7 -31 3 4 11 0 11 -19 2 -25 -12 -32 -26 -12
-26 6 0 8 -3 4 -7 -4 -4 -16 3 -28 17 -11 14 -17 19 -13 13 3 -7 1 -13 -4 -13
-6 0 -11 5 -11 10 0 6 -5 10 -10 10 -6 0 -10 -6 -9 -12 3 -27 -2 -38 -16 -38
-8 0 -15 7 -15 16 0 8 4 12 10 9 5 -3 7 0 4 9 -5 12 -10 10 -29 -9 -12 -14
-27 -25 -33 -25 -7 0 -9 -7 -5 -17 4 -11 3 -14 -5 -9 -7 4 -12 14 -12 22 0 8
-5 12 -10 9 -8 -5 -7 -11 1 -21 17 -20 3 -30 -18 -13 -17 13 -17 13 0 -7 9
-11 14 -24 10 -28 -5 -4 -2 -6 6 -4 9 2 14 -7 15 -24 1 -14 -1 -26 -4 -26 -3
0 -13 0 -24 -1 -15 -1 -16 -4 -6 -16 7 -8 16 -13 20 -10 5 3 11 1 15 -4 3 -6
-3 -8 -14 -6 -15 3 -20 -3 -23 -31 -3 -23 0 -33 7 -30 7 2 12 -2 12 -10 0 -7
-4 -11 -9 -8 -9 6 -11 -11 -10 -63 1 -18 -3 -35 -9 -38 -7 -5 -9 24 -8 85 3
104 3 103 -76 120 -27 6 -63 16 -78 23 l-28 12 30 34 c16 18 35 30 41 26 6 -4
9 -1 8 7 -2 7 3 12 10 10 8 -1 11 2 8 7 -8 13 21 34 35 25 7 -4 9 -3 6 3 -9
14 12 28 38 28 11 0 23 3 26 8 3 5 13 1 23 -8 15 -15 21 -12 17 9 -1 5 6 6 14
2 27 -10 33 1 25 40 -7 29 -6 34 6 30 8 -3 12 -1 9 4 -3 5 16 20 42 34 65 34
49 32 -29 -3 -119 -54 -336 -237 -311 -262 7 -7 47 -22 90 -34 l78 -23 6 -138
c7 -162 17 -203 69 -301 40 -75 99 -141 165 -186 22 -15 35 -27 30 -27 -6 0
-20 7 -31 15 -12 8 -25 11 -29 7 -5 -4 -5 -1 -1 6 4 7 1 12 -7 12 -8 0 -18 7
-21 16 -6 16 -8 16 -25 0 -9 -9 -21 -13 -24 -9 -4 3 -7 1 -7 -6 0 -8 7 -10 22
-5 19 6 21 5 11 -8 -7 -8 -9 -19 -5 -24 4 -4 -1 -2 -10 5 -15 11 -18 10 -23
-11 -4 -14 -13 -24 -24 -24 -12 0 -17 6 -14 16 4 9 -1 7 -10 -5 -9 -11 -11
-21 -6 -23 5 -2 9 -8 9 -13 0 -11 -40 10 -57 31 -8 9 -12 11 -13 3 0 -6 7 -18
15 -26 11 -12 12 -17 2 -20 -9 -4 -8 -8 3 -16 13 -9 13 -11 -2 -11 -10 0 -18
6 -18 13 0 7 -10 14 -22 14 -13 1 -18 -1 -11 -5 7 -5 9 -13 4 -21 -5 -7 -13
-11 -17 -8 -5 3 -18 -2 -29 -10 -17 -13 -17 -15 -2 -9 11 3 16 2 12 -4 -3 -6
-13 -10 -21 -10 -8 0 -12 -4 -9 -10 3 -5 0 -11 -7 -12 -7 0 -17 -2 -23 -2 -5
-1 -16 -5 -24 -10 -9 -6 -12 -5 -7 2 3 6 2 13 -4 17 -5 3 -10 1 -10 -5 0 -6
-4 -9 -9 -6 -5 3 -12 -1 -15 -10 -3 -8 -10 -13 -15 -9 -5 3 -13 0 -17 -6 -4
-8 -3 -9 4 -5 7 4 12 2 12 -3 0 -6 -15 -12 -32 -12 -20 -1 -25 -3 -13 -6 73
-15 68 -9 61 -71 -4 -31 -12 -78 -18 -103 l-11 -47 62 -76 c323 -390 881 -458
1282 -156 337 253 472 691 338 1094 -43 132 -108 234 -214 341 -140 140 -295
232 -463 276 -91 24 -282 38 -282 21z m204 -46 c-3 -9 -10 -16 -15 -16 -5 0
-4 9 3 20 14 22 21 20 12 -4z m-684 -151 c-7 -8 -18 -15 -24 -15 -6 0 -2 7 8
15 25 19 32 19 16 0z m178 -63 c-2 -21 3 -32 14 -26 7 4 8 3 4 -4 -5 -9 -13
-9 -27 -2 -11 6 -24 8 -29 5 -6 -4 -5 4 1 19 7 14 17 22 25 19 7 -3 13 -8 12
-11z m-83 -12 c-3 -5 1 -10 10 -10 9 0 13 -5 9 -11 -4 -8 -9 -8 -17 0 -7 7
-14 4 -21 -11 -12 -22 -28 -27 -34 -9 -2 6 3 11 12 11 9 0 16 6 16 14 0 12 10
20 28 25 2 1 0 -3 -3 -9z m35 -65 c0 -8 4 -17 10 -20 6 -3 7 1 4 10 -5 11 -2
14 10 9 13 -5 14 -9 5 -20 -16 -19 -27 -17 -34 6 -4 11 -11 17 -17 14 -6 -4
-6 -10 0 -16 11 -11 5 -38 -9 -38 -4 0 -6 7 -2 16 4 10 -1 20 -11 26 -20 11
-12 30 9 21 8 -3 15 0 15 7 0 6 5 8 10 5 6 -3 10 -12 10 -20z m-50 -47 c0 -4
-5 -8 -12 -8 -6 0 -8 3 -5 6 3 4 2 16 -4 28 -10 20 -10 20 5 2 9 -11 16 -23
16 -28z m56 -25 c-2 -15 -8 -28 -15 -29 -6 -1 -8 0 -3 2 5 3 7 16 4 29 -2 14
0 25 6 25 6 0 9 -12 8 -27z m-29 -9 c-3 -3 -12 -4 -19 -1 -8 3 -5 6 6 6 11 1
17 -2 13 -5z m643 -208 c0 -2 -8 -10 -17 -17 -16 -13 -17 -12 -4 4 13 16 21
21 21 13z m-173 -268 c-3 -7 -5 -2 -5 12 0 14 2 19 5 13 2 -7 2 -19 0 -25z
m-172 2 c-27 -12 -43 -12 -25 0 8 5 22 9 30 9 10 0 8 -3 -5 -9z m50 -10 c3 -6
-1 -7 -9 -4 -18 7 -21 14 -7 14 6 0 13 -4 16 -10z m-85 -13 c0 -2 -14 -16 -32
-33 l-31 -29 23 33 c20 27 40 42 40 29z m-19 -84 c13 -16 12 -17 -3 -4 -10 7
-18 15 -18 17 0 8 8 3 21 -13z m-486 -253 c-3 -5 -12 -10 -18 -10 -7 0 -6 4 3
10 19 12 23 12 15 0z"/>
<path d="M7763 6213 c9 -2 25 -2 35 0 9 3 1 5 -18 5 -19 0 -27 -2 -17 -5z"/>
<path d="M7718 6203 c7 -3 16 -2 19 1 4 3 -2 6 -13 5 -11 0 -14 -3 -6 -6z"/>
<path d="M7560 6160 c-9 -6 -10 -10 -3 -10 6 0 15 5 18 10 8 12 4 12 -15 0z"/>
<path d="M3140 6004 c-115 -31 -203 -117 -237 -233 -11 -38 -14 -81 -11 -146
7 -166 66 -251 307 -443 184 -147 236 -227 210 -324 -26 -100 -128 -146 -219
-100 -47 24 -71 69 -81 159 -4 41 -10 78 -13 80 -4 4 -144 -12 -200 -23 l-28
-6 7 -70 c12 -125 40 -194 100 -254 77 -75 141 -98 275 -98 122 -1 183 16 254
70 89 68 136 169 136 295 0 160 -66 263 -280 440 -206 170 -245 220 -243 322
1 66 18 98 66 127 102 63 227 -28 227 -164 l0 -49 68 6 c37 4 86 7 110 7 l42
0 0 48 c0 72 -27 161 -65 219 -81 123 -261 181 -425 137z"/>
<path d="M3903 6003 l-103 -4 0 -109 0 -110 115 0 115 0 0 115 c0 86 -3 114
-12 113 -7 -1 -59 -4 -115 -5z"/>
<path d="M1970 5281 l0 -721 115 0 115 0 0 295 0 295 69 0 69 0 96 -295 97
-295 120 0 c65 0 119 4 119 8 0 9 -152 445 -195 557 l-26 70 23 15 c57 37 107
94 134 153 28 60 29 68 29 212 0 119 -4 161 -18 202 -26 74 -94 145 -175 185
l-67 33 -252 3 -253 4 0 -721z m443 505 c70 -30 97 -89 97 -216 0 -179 -49
-230 -220 -230 l-90 0 0 230 0 230 90 0 c55 0 104 -5 123 -14z"/>
<path d="M4952 5893 l3 -107 135 -1 135 0 3 -612 2 -613 110 0 110 0 2 613 3
612 148 0 147 0 0 108 0 107 -400 0 -401 0 3 -107z"/>
<path d="M7360 5990 c-9 -6 -10 -10 -3 -10 6 0 15 5 18 10 8 12 4 12 -15 0z"/>
<path d="M4394 5632 c-148 -52 -225 -209 -179 -367 22 -79 103 -158 245 -242
137 -80 171 -116 178 -182 4 -45 2 -53 -25 -80 -39 -38 -74 -47 -121 -29 -49
19 -82 68 -82 125 l0 45 -72 -6 c-40 -4 -90 -9 -112 -13 l-39 -5 6 -63 c8 -83
29 -130 79 -182 66 -67 123 -87 248 -88 100 0 109 2 173 33 109 54 158 137
158 268 0 138 -59 223 -222 318 -128 75 -169 105 -190 139 -46 76 -2 157 84
157 29 0 53 -7 69 -19 24 -19 48 -78 48 -120 0 -24 15 -26 134 -14 l68 6 -6
66 c-14 130 -85 222 -198 256 -69 20 -180 19 -244 -3z"/>
<path d="M5905 5645 c-5 -2 -29 -9 -52 -15 -60 -15 -134 -85 -169 -162 l-29
-63 -3 -277 c-4 -306 3 -362 56 -448 33 -54 98 -105 155 -122 23 -7 85 -13
137 -13 76 0 104 4 141 21 104 48 162 132 177 253 l8 71 -107 0 -106 0 -5 -52
c-4 -40 -11 -57 -32 -74 -36 -32 -84 -39 -130 -20 -56 23 -76 75 -76 204 l0
102 226 0 226 0 -4 184 -3 183 -35 69 c-58 114 -150 165 -294 163 -39 0 -75
-2 -81 -4z m161 -216 c30 -28 44 -76 44 -156 l0 -63 -120 0 -120 0 0 72 c0 81
25 147 63 166 34 18 104 8 133 -19z"/>
<path d="M6678 5637 c-100 -29 -171 -103 -206 -217 -25 -81 -25 -569 0 -651
57 -182 231 -268 430 -213 111 32 199 142 213 269 4 33 9 67 11 76 4 14 -8 19
-59 28 -35 6 -82 11 -104 11 l-40 0 -6 -53 c-13 -109 -45 -147 -124 -147 -47
0 -81 22 -99 66 -22 53 -20 533 2 580 22 47 50 64 102 64 69 0 112 -61 112
-159 l0 -33 103 7 c56 4 104 9 106 11 3 3 0 40 -7 84 -26 184 -127 278 -306
286 -49 2 -100 -1 -128 -9z"/>
<path d="M3800 5098 l0 -538 115 0 115 0 0 534 0 535 -115 3 -115 3 0 -537z"/>
<path d="M6927 5180 c3 -36 10 -69 15 -75 6 -6 7 8 2 40 -12 82 -23 105 -17
35z"/>
<path d="M6941 5065 c-1 -43 10 -105 20 -105 5 0 6 7 3 15 -4 8 -10 39 -14 68
-5 32 -8 40 -9 22z"/>
<path d="M7185 5030 c-3 -5 -1 -10 4 -10 6 0 11 5 11 10 0 6 -2 10 -4 10 -3 0
-8 -4 -11 -10z"/>
<path d="M6983 4963 c0 -14 16 -17 41 -7 25 10 19 19 -12 19 -16 0 -29 -5 -29
-12z"/>
</g>
</svg>
