<?xml version="1.0" ?><svg viewBox="0 0 24 24" xmlns="http://www.w3.org/2000/svg" xmlns:xlink="http://www.w3.org/1999/xlink"><defs><style>.cls-1{fill:none;}.cls-2{fill:#fff;}.cls-3{fill:url(#linear-gradient);}</style><linearGradient gradientUnits="userSpaceOnUse" id="linear-gradient" x1="12" x2="12" y1="18" y2="6"><stop offset="0" stop-color="#0066ef"/><stop offset="1" stop-color="#00b2ff"/></linearGradient></defs><title/><g data-name="Layer 2" id="Layer_2"><g data-name="Layer 3" id="Layer_3"><g data-name="FaceBook Messenger" id="FaceBook_Messenger"><rect class="cls-1" height="24" width="24"/><path class="cls-2" d="M1,12C1,4,4,1,12,1S23,4,23,12,20,23,12,23,1,20,1,12"/><path class="cls-3" d="M12,6a5.88,5.88,0,0,0-6,5.77,5.65,5.65,0,0,0,2.06,4.34v1.32a.56.56,0,0,0,.85.49l.65-.37.54-.31a6.18,6.18,0,0,0,1.89.29,5.88,5.88,0,0,0,6-5.76A5.88,5.88,0,0,0,12,6Z"/><path class="cls-2" d="M15.07,10.11l-1.86,1.43a.29.29,0,0,1-.34,0l-1.43-1.1a.86.86,0,0,0-1.24.22L8.43,13.44a.28.28,0,0,0,.41.38l1.86-1.43a.29.29,0,0,1,.35,0l1.43,1.09a.85.85,0,0,0,1.24-.21l1.77-2.78A.29.29,0,0,0,15.07,10.11Z"/></g></g></g></svg>