<?xml version="1.0" ?><svg id="Layer_1" style="enable-background:new 0 0 65 65;" version="1.1" viewBox="0 0 65 65" xml:space="preserve" xmlns="http://www.w3.org/2000/svg" xmlns:xlink="http://www.w3.org/1999/xlink"><style type="text/css">
	.st0{fill:#1C1F20;}
</style><g><path class="st0" d="M58.5,62.5h-18c-0.6,0-1,0.4-1,1s0.4,1,1,1h18c0.6,0,1-0.4,1-1S59.1,62.5,58.5,62.5z"/><path class="st0" d="M63.5,62.5h-2c-0.6,0-1,0.4-1,1s0.4,1,1,1h2c0.6,0,1-0.4,1-1S64.1,62.5,63.5,62.5z"/><path class="st0" d="M2.5,15.5v-10c0-0.6-0.4-1-1-1s-1,0.4-1,1v10c0,0.6,0.4,1,1,1S2.5,16.1,2.5,15.5z"/><path class="st0" d="M1.5,3.5c0.6,0,1-0.4,1-1v-1c0-0.6-0.4-1-1-1s-1,0.4-1,1v1C0.5,3.1,0.9,3.5,1.5,3.5z"/><path class="st0" d="M11.5,6.5h1v1c0,0.6,0.4,1,1,1s1-0.4,1-1v-1h1c0.6,0,1-0.4,1-1s-0.4-1-1-1h-1v-1c0-0.6-0.4-1-1-1s-1,0.4-1,1v1   h-1c-0.6,0-1,0.4-1,1S10.9,6.5,11.5,6.5z"/><path class="st0" d="M49.5,57.5c0.6,0,1-0.4,1-1v-1h1c0.6,0,1-0.4,1-1s-0.4-1-1-1h-1v-1c0-0.6-0.4-1-1-1s-1,0.4-1,1v1h-1   c-0.6,0-1,0.4-1,1s0.4,1,1,1h1v1C48.5,57.1,48.9,57.5,49.5,57.5z"/><path class="st0" d="M42,49.4c-0.5,0-1,0.1-1.5,0.1c-13.8,0-25-11.2-25-25c0-4.4,1.2-8.6,3.2-12.2C8.8,14.8,1.5,23.8,1.5,34.5   c0,4.4,1.2,8.5,3.4,12l-3.4,11l9.7-4.2c3.8,2.7,8.3,4.2,13.3,4.2C31.5,57.5,37.8,54.4,42,49.4z"/><path class="st0" d="M40.5,47.5c5,0,9.5-1.6,13.3-4.2l9.7,4.2l-3.4-11c2.1-3.5,3.4-7.6,3.4-12c0-12.7-10.3-23-23-23   c-12.7,0-23,10.3-23,23C17.5,37.2,27.8,47.5,40.5,47.5z M29.5,28.5c-2.2,0-4-1.8-4-4s1.8-4,4-4c2.2,0,4,1.8,4,4   S31.7,28.5,29.5,28.5z M53.5,20.5c2.2,0,4,1.8,4,4s-1.8,4-4,4s-4-1.8-4-4S51.3,20.5,53.5,20.5z M45.5,24.5c0,2.2-1.8,4-4,4   s-4-1.8-4-4s1.8-4,4-4S45.5,22.3,45.5,24.5z M40.5,4.5c0.6,0,1,0.4,1,1s-0.4,1-1,1c-5.8,0-11.3,2.8-14.7,7.6   c-0.2,0.3-0.5,0.4-0.8,0.4c-0.2,0-0.4-0.1-0.6-0.2c-0.5-0.3-0.6-0.9-0.2-1.4C28,7.6,34.1,4.5,40.5,4.5z"/></g></svg>